<svg id="Capa_1" data-name="Capa 1" xmlns="http://www.w3.org/2000/svg" viewBox="0 0 200 100"><defs><style>.cls-1{fill:#fff;}</style></defs><title>Footer</title><path class="cls-1" d="M144.24,27.15l7.29-8.76a1.57,1.57,0,0,0,.2-1.92c-.2-.3-.82-.94-2.22-.49l-2.64.82-8.63,10.35H103.89c-1.19,0-2.39.13-3,1a3.33,3.33,0,0,0-.07,3l9.74,30.07a2.59,2.59,0,0,0,1.93,2,1.73,1.73,0,0,0,.41,0,3.72,3.72,0,0,0,2.77-1.65l12.71-15.34h27.11c2.84,0,4.62-.45,5.43-1.38a1.68,1.68,0,0,0,.45-1.3l-.12-.92H131.35l9.06-10.91,38.66,0c5.47,0,6.29-2.21,6.29-3.53V27.15Zm-9.83,4.62-9,10.91h-3.91c-1.75,0-2.84.41-3.32,1.25a1.85,1.85,0,0,0,0,1.82l.31.53h3.91L113.8,56.59l-9.29-24.82Z"/><path class="cls-1" d="M99.15,50.93a3.3,3.3,0,0,0,.07-3L89.48,17.87a2.59,2.59,0,0,0-1.93-2c-.72-.14-1.86,0-3.18,1.61L71.66,32.82H44.55c-2.84,0-4.62.45-5.43,1.38a1.69,1.69,0,0,0-.45,1.3l.12.92H68.65L59.59,47.33l-38.66,0c-5.47,0-6.29,2.21-6.29,3.53V52H55.76l-7.29,8.76a1.57,1.57,0,0,0-.2,1.92,1.54,1.54,0,0,0,1.33.65,3,3,0,0,0,.89-.16l2.64-.82L61.76,52H96.11C97.3,52,98.5,51.83,99.15,50.93Zm-33.56-3.6,9-10.91h3.91c1.75,0,2.84-.41,3.32-1.24a1.87,1.87,0,0,0,0-1.83l-.31-.53H77.64L86.2,22.51l9.29,24.82Z"/><path class="cls-1" d="M47.92,74.31l-4.11,9.74h1l1.12-2.76H50l1.14,2.76h1L48,74.31Zm-1.75,6.35L48,76.25l1.8,4.41Z"/><path class="cls-1" d="M62,77.33a2.91,2.91,0,0,0-3.26-2.89H55.28v9.61h.84V80.23h2.62l1.81,3.82h.88l-1.85-3.84A2.92,2.92,0,0,0,62,77.33Zm-3.11,2.22H56.12V75.12h2.72a2.12,2.12,0,0,1,2.28,2.21A2.17,2.17,0,0,1,58.89,79.55Z"/><rect class="cls-1" x="65.56" y="74.44" width="0.86" height="9.61"/><path class="cls-1" d="M73.69,74.31l-4.11,9.74h1l1.12-2.76h4.13L77,84.05h1l-4.09-9.74Zm-1.75,6.35,1.82-4.41,1.79,4.41Z"/><polygon class="cls-1" points="87.85 81.96 81.18 74.27 81.06 74.27 81.06 84.05 81.93 84.05 81.93 76.53 88.59 84.17 88.71 84.17 88.71 74.44 87.85 74.44 87.85 81.96"/><polygon class="cls-1" points="98.32 84.05 99.18 84.05 99.18 79.66 103.27 79.66 103.27 78.97 99.18 78.97 99.18 75.13 104.41 75.13 104.41 74.44 98.32 74.44 98.32 84.05"/><path class="cls-1" d="M109.75,74.31l-4.1,9.74h1l1.13-2.76h4.13L113,84.05H114l-4.09-9.74ZM108,80.66l1.81-4.41,1.8,4.41Z"/><polygon class="cls-1" points="117.98 74.44 117.12 74.44 117.12 84.05 121.89 84.05 121.89 83.36 117.98 83.36 117.98 74.44"/><path class="cls-1" d="M129.24,75.05a4.39,4.39,0,0,1,2.84,1.11l.52-.58a4.72,4.72,0,0,0-3.36-1.29c-3.67,0-4.74,2.94-4.74,4.9s1.07,5,4.74,5a5,5,0,0,0,3.33-1.23l-.48-.61a4.76,4.76,0,0,1-2.85,1c-3.38,0-3.85-3.09-3.85-4.16S125.86,75.1,129.24,75.05Z"/><path class="cls-1" d="M140.21,74.32c-3.66,0-4.73,2.9-4.73,4.9s1.07,4.93,4.73,4.93S145,81.28,145,79.22,143.89,74.32,140.21,74.32Zm0,9.07c-3.37,0-3.84-3.11-3.84-4.17s.47-4.13,3.84-4.13,3.85,3.07,3.85,4.13S143.59,83.39,140.21,83.39Z"/><polygon class="cls-1" points="141.01 71.37 139.03 72.84 139.31 73.23 141.41 71.96 141.01 71.37"/><polygon class="cls-1" points="155.32 81.96 148.65 74.27 148.53 74.27 148.53 84.05 149.41 84.05 149.41 76.53 156.06 84.17 156.19 84.17 156.19 74.44 155.32 74.44 155.32 81.96"/></svg>