<?xml version="1.0" standalone="no"?>
<!DOCTYPE svg PUBLIC "-//W3C//DTD SVG 20010904//EN"
 "http://www.w3.org/TR/2001/REC-SVG-20010904/DTD/svg10.dtd">
<svg version="1.0" xmlns="http://www.w3.org/2000/svg"
 width="500.000000pt" height="500.000000pt" viewBox="0 0 500.000000 500.000000"
 preserveAspectRatio="xMidYMid meet">
<metadata>
Created by potrace 1.11, written by Peter Selinger 2001-2013
</metadata>
<g transform="translate(0.000000,500.000000) scale(0.100000,-0.100000)"
fill="#000000" stroke="none">
<path d="M2937 4194 c-15 -8 -149 -161 -297 -339 l-270 -325 -582 -1 c-321 0
-594 -2 -608 -5 -41 -7 -98 -35 -106 -53 -3 -9 -8 -26 -9 -38 l-3 -23 600 0
c370 0 598 -4 596 -9 -1 -6 -85 -109 -186 -230 l-183 -220 -808 1 c-445 0
-824 -3 -842 -7 -48 -10 -105 -44 -118 -69 -10 -20 -15 -48 -12 -73 1 -10 176
-13 822 -15 l821 -3 -157 -187 c-128 -154 -156 -193 -153 -214 5 -41 27 -50
92 -34 31 7 67 20 80 29 14 9 75 77 136 151 61 74 126 153 145 175 18 22 42
51 53 65 l20 24 718 1 c671 0 721 2 745 18 51 34 47 53 -70 416 -179 552 -222
682 -248 766 -49 154 -63 184 -93 200 -36 18 -47 18 -83 -1z m23 -238 c0 -2
77 -210 171 -462 94 -253 175 -470 179 -484 4 -14 11 -33 15 -42 6 -16 -34
-17 -604 -16 -562 0 -610 2 -602 17 5 9 31 41 58 72 26 31 106 127 177 213
l129 156 111 0 c93 0 116 3 144 20 24 15 32 27 32 47 0 46 -10 52 -97 55 l-81
3 65 80 c36 44 77 94 92 110 14 17 64 76 110 133 71 87 101 116 101 98z"/>
<path d="M3393 2641 c-29 -10 -62 -30 -76 -47 -13 -16 -63 -76 -111 -134 -48
-58 -114 -138 -147 -177 l-61 -73 -704 0 c-770 0 -763 1 -785 -57 -5 -15 -7
-39 -4 -53 6 -26 152 -478 349 -1084 70 -214 83 -234 151 -222 45 9 50 15 320
341 114 138 223 269 242 291 l34 42 583 0 c504 0 591 2 639 16 61 18 74 29 83
74 l7 32 -602 0 c-330 0 -601 3 -601 6 0 3 83 106 184 227 l185 222 788 0
c433 0 812 3 842 8 98 14 144 53 153 127 l3 25 -695 2 c-382 2 -753 4 -824 5
l-129 3 157 188 c99 119 156 196 156 211 0 49 -46 58 -137 27z m-533 -595 c0
-3 -83 -105 -185 -228 l-185 -223 -124 -5 c-145 -6 -169 -18 -164 -79 l3 -36
87 -5 87 -5 -181 -218 -182 -218 -144 388 c-79 213 -150 402 -157 418 -7 17
-17 44 -21 60 -4 17 -10 35 -14 40 -12 17 -39 103 -33 108 6 7 1213 9 1213 3z"/>
</g>
</svg>
