<?xml version="1.0" encoding="UTF-8" standalone="no"?>
<svg
   xmlns:dc="http://purl.org/dc/elements/1.1/"
   xmlns:cc="http://creativecommons.org/ns#"
   xmlns:rdf="http://www.w3.org/1999/02/22-rdf-syntax-ns#"
   xmlns:svg="http://www.w3.org/2000/svg"
   xmlns="http://www.w3.org/2000/svg"
   xmlns:sodipodi="http://sodipodi.sourceforge.net/DTD/sodipodi-0.dtd"
   xmlns:inkscape="http://www.inkscape.org/namespaces/inkscape"
   id="Capa_1"
   data-name="Capa 1"
   viewBox="0 0 600 100"
   version="1.1"
   sodipodi:docname="Inner-large-logo.svg"
   inkscape:version="0.92.2 5c3e80d, 2017-08-06">
  <metadata
     id="metadata3885">
    <rdf:RDF>
      <cc:Work
         rdf:about="">
        <dc:format>image/svg+xml</dc:format>
        <dc:type
           rdf:resource="http://purl.org/dc/dcmitype/StillImage" />
        <dc:title>Head</dc:title>
      </cc:Work>
    </rdf:RDF>
  </metadata>
  <sodipodi:namedview
     pagecolor="#ffffff"
     bordercolor="#666666"
     borderopacity="1"
     objecttolerance="10"
     gridtolerance="10"
     guidetolerance="10"
     inkscape:pageopacity="0"
     inkscape:pageshadow="2"
     inkscape:window-width="785"
     inkscape:window-height="585"
     id="namedview3883"
     showgrid="false"
     inkscape:zoom="0.48"
     inkscape:cx="-57.291667"
     inkscape:cy="50"
     inkscape:window-x="837"
     inkscape:window-y="277"
     inkscape:window-maximized="0"
     inkscape:current-layer="Capa_1" />
  <defs
     id="defs3824">
    <style
       id="style3822">.cls-1{fill:#fff;}</style>
  </defs>
  <title
     id="title3826">Head</title>
  <path
     class="cls-1"
     d="M532.81,49.06l-7.55,2.2c-4.7,1.4-6.5.8-7.5.05a50.58,50.58,0,0,1-16,3c-3,0-6-.21-6.35-2-.4-2,3.85-4.8,5.9-5.8l-14.3,4c0-1.35,1.4-2.4,2.5-2.7a166.4,166.4,0,0,1,17.1-4.15c15.24-2.85,19.34-.9,19.34,1.45,0,1.6-1.85,2.95-3.65,4.15,0,0,.35.45,2.75-.15,3.4-.9,10.2-2.8,10.2-2.8A3,3,0,0,1,532.81,49.06Zm-16-4.35c-6.44,0-14.94,3.95-14.34,6.2.2.7,1.35.9,3.2.9a32.2,32.2,0,0,0,10.54-2.2s-.8-.85-.8-1.45,1.1-.95,4.45-1.6a1.16,1.16,0,0,0,.35-.75C520.21,45.06,518.56,44.71,516.81,44.71Zm1.5-11,7.6-4.55s2.65,2.9-2.35,4.7l-6.7,2.4S516,35.11,518.31,33.76Z"
     id="path3828"
     style="fill:#000000" />
  <path
     class="cls-1"
     d="M393.27,96.17V83.5h4.2c4.83,0,6.26,3.68,6.26,6.32s-1.43,6.35-6.26,6.35Zm4.2-.69c4.7,0,5.48-4.18,5.48-5.66s-.78-5.63-5.48-5.63h-3.36V95.48Z"
     id="path3830"
     style="fill:#000000" />
  <path
     class="cls-1"
     d="M407.46,96.17h-.84V83.5h.84Z"
     id="path3832"
     style="fill:#000000" />
  <path
     class="cls-1"
     d="M411,86.34c0,1.74,1.72,2.23,3.56,2.84,2.05.67,4.31,1.32,4.24,3.84-.06,1.79-1.78,3.29-4.33,3.29a8.76,8.76,0,0,1-4.21-.94l.32-.63a9.83,9.83,0,0,0,3.75.81c1.79,0,3.51-.81,3.58-2.48,0-2.1-1.88-2.58-3.82-3.2s-3.9-1.21-3.92-3.44c0-2.06,1.61-3,3.71-3a11.67,11.67,0,0,1,4,.79l-.31.71a11.66,11.66,0,0,0-3.65-.74c-1.45,0-2.88.47-2.93,2.17Z"
     id="path3834"
     style="fill:#000000" />
  <path
     class="cls-1"
     d="M421.73,83.5h8v.69h-7.2v5.3h5.7v.69h-5.7v5.3h7.2v.69h-8Z"
     id="path3836"
     style="fill:#000000" />
  <path
     class="cls-1"
     d="M432.66,83.49l.14-.06,9,10.69V83.5h.84V96.2l-.15,0-9-10.69V96.17h-.85Zm7.63-2.68a1.83,1.83,0,0,1-1.63,1.07c-1,0-1.16-.8-2.06-.8-.38,0-.73.16-1.1.8l-.46-.22a1.72,1.72,0,0,1,1.59-1.21c.89,0,1.27.81,2.05.81a1.45,1.45,0,0,0,1.17-.72Z"
     id="path3838"
     style="fill:#000000" />
  <path
     class="cls-1"
     d="M453.4,92.33h-5.93l-1.57,3.84H445l5.34-12.76h.14l5.34,12.76H455Zm-5.66-.65h5.39l-2.69-6.55Z"
     id="path3840"
     style="fill:#000000" />
  <path
     class="cls-1"
     d="M458.2,96.17V83.5h4.19c4.83,0,6.26,3.68,6.26,6.32s-1.43,6.35-6.26,6.35Zm4.19-.69c4.71,0,5.48-4.18,5.48-5.66s-.77-5.63-5.48-5.63H459V95.48Z"
     id="path3842"
     style="fill:#000000" />
  <path
     class="cls-1"
     d="M470.82,89.83c0-2.71,1.42-6.47,6.24-6.47s6.26,3.76,6.26,6.47-1.41,6.46-6.26,6.46S470.82,92.48,470.82,89.83Zm.84,0c0,1.46.52,5.77,5.4,5.77,4.71,0,5.43-4,5.43-5.74s-.72-5.77-5.43-5.77S471.66,88.17,471.66,89.8Z"
     id="path3844"
     style="fill:#000000" />
  <path
     class="cls-1"
     d="M487.05,96.17h-.83V83.5h4.61c3.29,0,4.27,2.26,4.27,3.8a3.83,3.83,0,0,1-3.47,3.8l2.46,5.07h-.87l-2.44-5h-3.73Zm3.89-5.72a3.14,3.14,0,0,0,3.36-3.15A3.1,3.1,0,0,0,491,84.19h-4v6.26Z"
     id="path3846"
     style="fill:#000000" />
  <path
     class="cls-1"
     d="M508.87,90.61h4.3v4.23a6.68,6.68,0,0,1-4.27,1.49c-4.83,0-6.24-3.75-6.24-6.46s1.41-6.44,6.24-6.44A6.16,6.16,0,0,1,513.21,85l-.49.55a5.84,5.84,0,0,0-3.82-1.41c-4.72.07-5.39,4.25-5.39,5.71s.67,5.7,5.39,5.7a6.19,6.19,0,0,0,3.42-1V91.3h-3.45Z"
     id="path3848"
     style="fill:#000000" />
  <path
     class="cls-1"
     d="M516.94,96.17h-.84V83.5h4.62c3.29,0,4.26,2.26,4.26,3.8a3.82,3.82,0,0,1-3.47,3.8L524,96.17h-.87l-2.44-5h-3.72Zm3.88-5.72a3.15,3.15,0,0,0,3.37-3.15,3.11,3.11,0,0,0-3.28-3.11h-4v6.26Z"
     id="path3850"
     style="fill:#000000" />
  <path
     class="cls-1"
     d="M534.88,92.44h-5.81l-1.52,3.73h-1l5.33-12.76h.15l5.33,12.76h-1Zm-5.48-.76h5.17L532,85.39Zm1.16-10L533,79.83l.38.58L530.77,82Z"
     id="path3852"
     style="fill:#000000" />
  <path
     class="cls-1"
     d="M540.58,90.29v5.88h-.83V83.5h8v.71h-7.2v5.37h5.7v.71Z"
     id="path3854"
     style="fill:#000000" />
  <path
     class="cls-1"
     d="M551.5,96.17h-.83V83.5h.83Z"
     id="path3856"
     style="fill:#000000" />
  <path
     class="cls-1"
     d="M564.27,85.51a5.85,5.85,0,0,0-3.81-1.41c-4.72.07-5.39,4.25-5.39,5.72s.67,5.69,5.39,5.69a6.25,6.25,0,0,0,3.81-1.33l.47.57a6.57,6.57,0,0,1-4.28,1.52c-4.83,0-6.24-3.74-6.24-6.45s1.41-6.44,6.24-6.44a6.09,6.09,0,0,1,4.3,1.59Z"
     id="path3858"
     style="fill:#000000" />
  <path
     class="cls-1"
     d="M566.75,89.83c0-2.71,1.41-6.47,6.24-6.47s6.26,3.76,6.26,6.47-1.41,6.46-6.26,6.46S566.75,92.48,566.75,89.83Zm.84,0c0,1.46.52,5.77,5.4,5.77,4.71,0,5.43-4,5.43-5.74s-.72-5.77-5.43-5.77S567.59,88.17,567.59,89.8Z"
     id="path3860"
     style="fill:#000000" />
  <path
     class="cls-1"
     d="M402.45,45.3H361.9L342.76,68.4c-2.18,2.61-4.07,2.37-4.84-.05l-14.3-44.17c-1-3-.29-3.87,3.09-3.87h51.18L390.75,4.89l3.43-1.06c1.5-.49,2,.24,1.31,1.06L382.68,20.31h62.16c0,2.27-2.61,3.62-7.69,3.62L379.63,24l-15.9,19.14h45.82S409.84,45.3,402.45,45.3ZM349,45.3s-1.26-2.18,3.53-2.18H359L374.85,24h-48c-1,0-1.25.63-1,1.36l14.16,37.84a1.06,1.06,0,0,0,2,.34L357.16,45.3Z"
     id="path3862"
     style="fill:#000000" />
  <path
     class="cls-1"
     d="M63.14,28.64h40.55L122.83,5.53c2.18-2.61,4.06-2.36,4.83,0L142,49.76c1,3,.29,3.87-3.09,3.87H87.69L74.83,69.05,71.4,70.11c-1.5.48-2-.24-1.3-1.06L82.91,53.63H20.75c0-2.27,2.61-3.63,7.68-3.63L86,50l15.9-19.14H56S55.74,28.64,63.14,28.64Zm53.46,0s1.25,2.17-3.53,2.17h-6.48L90.74,50h48c1,0,1.26-.62,1-1.35L125.54,10.75a1.06,1.06,0,0,0-2-.33L108.43,28.64Z"
     id="path3864"
     style="fill:#000000" />
  <path
     class="cls-1"
     d="M183.81,49l-4.5,1.3c-8.85,2.55-10.1-1.3-8.2-4-4.5.5-11.69,2.65-21.19,7.6-1.45.75-2.3.2-1.4-.9l4.9-6-13,3.5a3,3,0,0,1,2.45-2.7l16.55-4.7c1.6-.45,2.05.25,1.35,1.1L157,48.76a50.9,50.9,0,0,1,20.09-5.5s1.25,1.65.4,2.2c-3.65,2.45-2.15,4,3.3,2.45l5.45-1.55A3,3,0,0,1,183.81,49Z"
     id="path3866"
     style="fill:#000000" />
  <path
     class="cls-1"
     d="M205.21,49.06l-17.35,5c-1.6.5-2.25.1-1.35-1l4.9-6-13,3.5a3,3,0,0,1,2.45-2.7l16.55-4.7c1.55-.45,2.05.25,1.35,1.1l-4.9,5.95,13.8-3.85A3,3,0,0,1,205.21,49.06Zm3.8-16-8.15-.6c-2.9-.15,0-1.5,0-1.5L211,29.71c1.1-.1,1.1.85,0,1.8Z"
     id="path3868"
     style="fill:#000000" />
  <path
     class="cls-1"
     d="M249.6,49.06l-17.3,5c-1.55.45-2.25,0-1.4-1.05l4.85-5.9-24.49,6.74c-2.25.61-3.1.25-3.1-.79,0-1.25,1-4,5.05-6.35a80,80,0,0,1-7.85,2.4l-5.7,1.5a3,3,0,0,1,2.45-2.7l3-.9c12.45-3.5,15.5-3.95,20.35-3.95,5.09,0,6.94,1.6,7.64,2.5l8.65-2.4c1.4-.4,2.1.25,1.4,1.1l-4.95,6,13.8-3.8A3,3,0,0,1,249.6,49.06Zm-24.09-3.9c-5.45,0-9.55,2.65-10.2,4.45-.25.65-.05.8,2.2.25,9.44-2.4,12.94-3.65,12.94-3.65C229.8,45.76,228.85,45.16,225.51,45.16Z"
     id="path3870"
     style="fill:#000000" />
  <path
     class="cls-1"
     d="M293.49,49.11l-17.34,5c-1.55.46-2-.25-1.35-1l3.95-4.85c.8-1,.55-1.25-.55-1-5.6,1.2-12.45,3-24.7,6.89-1.85.61-2.25.06-1.35-1l4.9-6-13,3.5a3,3,0,0,1,2.45-2.7l16.55-4.7c1.55-.45,2.05.25,1.35,1.1l-4.9,5.85a198.72,198.72,0,0,1,24.4-6.75c3.29-.65,3.89,0,2.35,1.85l-4.1,5,13.79-3.8A3,3,0,0,1,293.49,49.11Z"
     id="path3872"
     style="fill:#000000" />
  <path
     class="cls-1"
     d="M434.62,49.06l-17.29,5c-1.55.45-2.25,0-1.4-1.05l4.85-5.9-24.4,6.74c-2.3.66-3.2.25-3.2-.79,0-3.8,7.15-10,17.35-10,5.1,0,7,1.6,7.65,2.5l8.65-2.4c1.4-.4,2.09.25,1.4,1.1l-5,6,13.79-3.8A3,3,0,0,1,434.62,49.06Zm-24.09-3.9c-5.45,0-9.55,2.65-10.2,4.45-.25.65-.05.8,2.2.25,9.45-2.4,13-3.65,13-3.65C414.83,45.76,413.88,45.16,410.53,45.16Z"
     id="path3874"
     style="fill:#000000" />
  <path
     class="cls-1"
     d="M443.18,45.71c-3.35,1.75-8.7,3.45-14.1,4.9,0,0-.1-2,2.45-2.7a80.71,80.71,0,0,0,14.25-5.35c10.54-12.7,16.14-19.3,21.29-24.75,3.15-3.29,4.95-4.59,6.1-4.59s1.25,1.39.55,3.94c-3.05,11-13.1,19.6-22.55,25l-6.59,8,13.79-3.75a3,3,0,0,1-2.4,2.65l-17.34,5c-1.4.4-2.3,0-1.45-1ZM471,18.31s-1.8,2.05-4.95,5.85c-3.8,4.65-11.6,14-11.6,14,8.35-5.45,14.2-12.45,16.9-19.55C471.57,18,471.42,17.86,471,18.31Z"
     id="path3876"
     style="fill:#000000" />
  <path
     class="cls-1"
     d="M492.47,49.06c-10.35,3.15-20,5.4-28.45,5.4-9.54,0-2.7-6.65.4-7.75-5.25,1.55-8.55,2.4-13.89,3.9a3.2,3.2,0,0,1,2.45-2.7c6.94-2,16.94-5.2,24.59-5.2,6.65,0,7.9,1.45,7.9,2.7s-2.05,2.35-3.3,2.35v-.2c0-1.6-1.1-2.5-4.95-2.5-8.6,0-15,6.95-9,6.95,6.8,0,15.65-2.5,26.64-5.7A3,3,0,0,1,492.47,49.06Z"
     id="path3878"
     style="fill:#000000" />
  <path
     class="cls-1"
     d="M576.8,49.11l-17.34,5c-1.55.46-2.05-.25-1.35-1l3.95-4.85c.8-1,.55-1.25-.55-1-5.6,1.2-12.45,3-24.7,6.89-1.85.61-2.25.06-1.35-1l4.9-6-13,3.5a3,3,0,0,1,2.44-2.7l16.55-4.7c1.55-.45,2,.25,1.35,1.1l-4.9,5.85a199.11,199.11,0,0,1,24.39-6.75c3.3-.65,3.9,0,2.35,1.85l-4.09,5,13.79-3.8A3,3,0,0,1,576.8,49.11Z"
     id="path3880"
     style="fill:#000000" />
</svg>
